<svg width="132" height="48" viewBox="0 0 132 48" fill="none" xmlns="http://www.w3.org/2000/svg">
<path d="M30.4844 8.28362L29.7854 6.50833C29.7854 6.50833 29.4981 5.67643 29.3566 5.42343C29.2923 5.30336 29.1422 5.13184 29.0093 4.99891C28.3232 4.3128 27.3584 4.01692 26.5007 4.29136C25.969 4.46289 25.463 4.69874 25.463 4.69874C25.463 4.69874 25.463 4.69874 25.4587 4.69874L23.6877 5.47489C23.1088 5.72789 22.517 5.91657 21.9081 6.04521C20.6431 6.31108 19.3395 6.31108 18.0831 6.04521C17.4742 5.91657 16.8781 5.72789 16.2992 5.47489L14.6397 4.75019C14.6397 4.75019 13.7049 4.29565 13.3747 4.19702C12.5514 3.9526 11.6294 4.31709 10.9776 4.96889C10.8662 5.08038 10.6861 5.32052 10.6132 5.45774C10.4631 5.74504 10.1972 6.54693 10.1972 6.54693L9.5111 8.2922C9.27954 8.87968 8.99224 9.43285 8.65347 9.956C9.14232 9.85308 9.68692 9.92169 10.283 10.1833L12.9245 11.3368L15.1543 12.3102L15.2401 12.3488L17.903 13.5066C19.2366 14.0898 20.7546 14.0898 22.0882 13.5066L24.7512 12.3445L24.8369 12.3059L27.0668 11.3325L29.7083 10.179C30.3043 9.92169 30.8489 9.84451 31.3378 9.95171C30.999 9.42856 30.7117 8.87539 30.4801 8.28791L30.4844 8.28362Z" fill="#323AF0"/>
<path d="M35.6904 34.5016L37.4657 33.8026L38.5506 33.3738H38.5592C38.7093 33.2709 38.8422 33.1594 38.9752 33.0265C39.6613 32.3404 39.91 31.3798 39.7213 30.5008V30.4965L39.2796 29.4802C39.2796 29.4802 39.2796 29.4802 39.2796 29.4759L38.5035 27.7049C38.2505 27.126 38.0618 26.5342 37.9331 25.9253C37.6673 24.6603 37.6673 23.3567 37.9331 22.1003C38.0618 21.4914 38.2505 20.8953 38.5035 20.3164L39.2282 18.6569L39.7813 17.3919C39.9185 16.5471 39.6613 15.6466 39.0095 14.9948C38.898 14.8833 38.7736 14.7804 38.6493 14.6904L37.4357 14.2144L35.6904 13.5283C35.103 13.2967 34.5498 13.0094 34.0266 12.6707C34.1296 13.1595 34.0609 13.7041 33.7994 14.3001L32.6459 16.9416L31.6724 19.1715L31.6339 19.2572L30.4761 21.9202C29.8929 23.2538 29.8929 24.7718 30.4761 26.1054L31.6381 28.7684L31.6767 28.8541L32.6501 31.0839L33.8037 33.7254C34.0609 34.3215 34.1381 34.8661 34.0309 35.3549C34.5541 35.0162 35.1073 34.7289 35.6947 34.4973L35.6904 34.5016Z" fill="#323AF0"/>
<path d="M9.46806 39.7117L10.167 41.487C10.167 41.487 10.4543 42.3189 10.5958 42.5719C10.6602 42.692 10.8102 42.8635 10.9432 42.9964C11.6293 43.6825 12.5941 43.9784 13.4517 43.704C13.9835 43.5325 14.4895 43.2966 14.4895 43.2966C14.4895 43.2966 14.4895 43.2966 14.4938 43.2966L16.2648 42.5247C16.8437 42.2717 17.4354 42.0831 18.0443 41.9544C19.3093 41.6886 20.6129 41.6886 21.8694 41.9544C22.4783 42.0831 23.0743 42.2717 23.6532 42.5247L25.3127 43.2494C25.3127 43.2494 26.2476 43.704 26.5778 43.8026C27.4011 44.047 28.323 43.6825 28.9748 43.0307C29.0863 42.9193 29.2664 42.6791 29.3393 42.5419C29.4894 42.2546 29.7553 41.4527 29.7553 41.4527L30.4414 39.7074C30.6729 39.12 30.9602 38.5668 31.299 38.0436C30.8102 38.1466 30.2656 38.0779 29.6695 37.8164L27.028 36.6629L24.7982 35.6894L24.7124 35.6509L22.0495 34.4931C20.7159 33.9099 19.1979 33.9099 17.8642 34.4931L15.2013 35.6551L15.1155 35.6937L12.8857 36.6671L10.2442 37.8207C9.64816 38.0779 9.10356 38.1551 8.61472 38.0479C8.95348 38.5711 9.24078 39.1242 9.47234 39.7117H9.46806Z" fill="#323AF0"/>
<path d="M4.26243 13.494L2.48714 14.1929L1.40224 14.6217H1.39366C1.24358 14.7247 1.11064 14.8362 0.97771 14.9691C0.291607 15.6552 0.0428943 16.6157 0.231573 17.4948V17.4991L0.673253 18.5154C0.673253 18.5154 0.673253 18.5154 0.673253 18.5197L1.44941 20.2907C1.70241 20.8696 1.89109 21.4613 2.01973 22.0703C2.28559 23.3353 2.28559 24.6389 2.01973 25.8953C1.89109 26.5042 1.70241 27.1002 1.44941 27.6791L0.72471 29.3387L0.171539 30.6037C0.0343183 31.4484 0.291607 32.3489 0.943404 33.0007C1.0549 33.1122 1.17925 33.2151 1.30361 33.3052L2.51715 33.7812L4.26243 34.4673C4.8499 34.6988 5.40308 34.9861 5.92623 35.3249C5.82331 34.8361 5.89192 34.2915 6.1535 33.6954L7.30701 31.0539L8.28042 28.8241L8.31901 28.7383L9.47681 26.0754C10.06 24.7418 10.06 23.2238 9.47681 21.8902L8.31472 19.2272L8.27613 19.1415L7.30272 16.9116L6.14921 14.2701C5.89192 13.6741 5.81474 13.1295 5.92194 12.6406C5.39879 12.9794 4.84562 13.2667 4.25814 13.4983L4.26243 13.494Z" fill="#323AF0"/>
<path d="M16.286 5.29502L14.5235 4.52315C14.5235 4.52315 13.726 4.13293 13.4429 4.05575C13.31 4.01715 13.0784 4 12.8941 4C11.9121 4 11.0158 4.48027 10.5999 5.28644C10.3426 5.78816 10.1496 6.3156 10.1496 6.3156L9.43781 8.12948C9.20625 8.72125 8.91894 9.27871 8.57589 9.80615C7.86406 10.8996 6.93353 11.8302 5.84863 12.5334C5.32548 12.8765 4.75944 13.1681 4.16768 13.3996L2.46529 14.0686C2.46529 14.0686 1.47472 14.4116 1.16598 14.5746C0.406976 14.9862 0.00817871 15.9039 0.00817871 16.8344C0.00817871 16.9931 0.0510614 17.2932 0.098231 17.439C0.196858 17.7521 0.574215 18.5111 0.574215 18.5111L1.33322 20.2435C1.53905 20.7152 1.702 21.1997 1.82635 21.6929C1.86066 21.8258 2.02361 21.873 2.11795 21.7701C2.3881 21.4742 2.76117 21.2298 3.23286 21.0454L5.93868 19.9819L8.22426 19.0857L8.31431 19.0514L11.0373 17.9751C12.4052 17.439 13.4858 16.3541 14.0218 14.9948L15.0939 12.2675L15.1282 12.1775L16.0244 9.89191L17.0879 7.18609C17.2765 6.7144 17.5167 6.34133 17.8168 6.07117C17.9198 5.97683 17.8726 5.81388 17.7397 5.77958C17.2465 5.65522 16.7662 5.49227 16.2946 5.28644L16.286 5.29502Z" fill="#F8BC18"/>
<path d="M38.6961 20.2822L39.468 18.5198L39.9397 17.4391V17.4306C39.974 17.2548 39.9911 17.0747 39.9911 16.8903C39.9911 15.9083 39.4851 15.0507 38.7218 14.5532L37.6841 14.1459L35.8702 13.434C35.2784 13.2025 34.721 12.9152 34.1935 12.5721C33.1001 11.8603 32.1695 10.9297 31.4663 9.84485C31.1232 9.32169 30.8316 8.75566 30.6001 8.16389L29.9311 6.4615L29.4337 5.18792C29.4337 5.18792 29.4208 5.15791 29.408 5.14075C28.902 4.45036 28.0872 4.00439 27.1653 4.00439C27.0066 4.00439 26.8437 4.01726 26.6936 4.04728L25.4886 4.57043L23.7562 5.32943C23.2845 5.53526 22.7999 5.69821 22.3068 5.82257C22.1739 5.85687 22.1267 6.01982 22.2296 6.11416C22.5255 6.38431 22.7699 6.75738 22.9543 7.22908L24.0178 9.9349L24.914 12.2205L24.9483 12.3105L26.0246 15.0335C26.5606 16.4014 27.6456 17.482 29.0049 18.018L31.7322 19.0901L31.8222 19.1244L34.1078 20.0206L36.8136 21.0841C37.2853 21.2728 37.6584 21.5129 37.9285 21.8131C38.0229 21.916 38.1858 21.8688 38.2201 21.7359C38.3445 21.2427 38.5074 20.7625 38.7133 20.2908L38.6961 20.2822Z" fill="#FC3D2B"/>
<path d="M23.7092 42.7007L25.4716 43.4726C25.4716 43.4726 26.2692 43.8628 26.5522 43.9443C26.6851 43.9828 26.9167 44 27.1011 44C28.0831 44 28.9793 43.5197 29.3952 42.7136C29.6525 42.2118 29.8455 41.6844 29.8455 41.6844L30.5573 39.8705C30.7889 39.2788 31.0762 38.7213 31.4192 38.1939C32.1311 37.1004 33.0616 36.1698 34.1465 35.4666C34.6697 35.1235 35.2357 34.8319 35.8275 34.6004L37.5298 33.9314C37.5298 33.9314 38.5204 33.5884 38.8292 33.4254C39.5882 33.0138 39.987 32.0961 39.987 31.1656C39.987 31.0069 39.9441 30.7068 39.8969 30.561C39.7983 30.2479 39.4209 29.4889 39.4209 29.4889L38.6619 27.7565C38.4561 27.2848 38.2931 26.8003 38.1688 26.3071C38.1345 26.1742 37.9715 26.127 37.8772 26.2299C37.607 26.5258 37.234 26.7702 36.7623 26.9546L34.0565 28.0181L31.7709 28.9143L31.6808 28.9486L28.9578 30.0249C27.5899 30.561 26.5093 31.6459 25.9733 33.0052L24.9013 35.7325L24.867 35.8225L23.9707 38.1081L22.9073 40.8139C22.7186 41.2856 22.4785 41.6587 22.1783 41.9288C22.0754 42.0232 22.1225 42.1861 22.2555 42.2204C22.7486 42.3448 23.2289 42.5077 23.7006 42.7136L23.7092 42.7007Z" fill="#F8BC18"/>
<path d="M1.29502 27.7137L0.523152 29.4761L0.0514573 30.5567V30.5653C0.0171521 30.7411 0 30.9212 0 31.1056C0 32.0876 0.506001 32.9452 1.26929 33.4426L2.30702 33.85L4.1209 34.5618C4.71267 34.7934 5.27013 35.0807 5.79757 35.4238C6.89105 36.1356 7.82157 37.0661 8.52483 38.151C8.86788 38.6742 9.15947 39.2402 9.39103 39.832L10.06 41.5344L10.5574 42.8079C10.5574 42.8079 10.5703 42.838 10.5831 42.8551C11.0891 43.5455 11.9039 43.9915 12.8258 43.9915C12.9845 43.9915 13.1474 43.9786 13.2975 43.9486L14.5025 43.4254L16.2349 42.6664C16.7066 42.4606 17.1912 42.2977 17.6843 42.1733C17.8172 42.139 17.8644 41.976 17.7615 41.8817C17.4656 41.6115 17.2212 41.2385 17.0368 40.7668L15.9733 38.061L15.0771 35.7754L15.0428 35.6853L13.9665 32.9624C13.4305 31.5944 12.3456 30.5138 10.9862 29.9778L8.25896 28.9058L8.16891 28.8715L5.88333 27.9753L3.17751 26.9118C2.70582 26.7231 2.33275 26.483 2.0626 26.1828C1.96826 26.0799 1.80531 26.1271 1.771 26.26C1.64665 26.7531 1.4837 27.2334 1.27787 27.7051L1.29502 27.7137Z" fill="#FC3D2B"/>
<path d="M56.5951 30.44C57.1312 30.44 57.5672 30.372 57.9032 30.236C58.2472 30.1 58.5152 29.924 58.7072 29.708C58.8992 29.492 59.0312 29.248 59.1032 28.976C59.1752 28.704 59.2112 28.428 59.2112 28.148C59.2112 27.828 59.1672 27.54 59.0792 27.284C58.9992 27.028 58.8552 26.812 58.6472 26.636C58.4472 26.46 58.1792 26.324 57.8432 26.228C57.5072 26.132 57.0832 26.084 56.5712 26.084H53.7392V30.44H56.5951ZM53.7392 19.052V23.372H55.8512C56.2992 23.372 56.7032 23.34 57.0632 23.276C57.4232 23.212 57.7272 23.1 57.9752 22.94C58.2312 22.78 58.4232 22.56 58.5512 22.28C58.6872 22 58.7552 21.648 58.7552 21.224C58.7552 20.808 58.7032 20.464 58.5992 20.192C58.4952 19.912 58.3352 19.688 58.1192 19.52C57.9032 19.352 57.6272 19.232 57.2912 19.16C56.9632 19.088 56.5712 19.052 56.1152 19.052H53.7392ZM56.1152 16.016C57.3232 16.016 58.3512 16.128 59.1992 16.352C60.0472 16.576 60.7392 16.892 61.2751 17.3C61.8112 17.708 62.1992 18.204 62.4392 18.788C62.6872 19.372 62.8112 20.024 62.8112 20.744C62.8112 21.136 62.7552 21.516 62.6432 21.884C62.5312 22.244 62.3552 22.584 62.1152 22.904C61.8752 23.216 61.5672 23.504 61.1912 23.768C60.8152 24.032 60.3632 24.26 59.8352 24.452C60.9872 24.732 61.8392 25.184 62.3912 25.808C62.9432 26.432 63.2192 27.24 63.2192 28.232C63.2192 28.976 63.0752 29.668 62.7872 30.308C62.4992 30.948 62.0752 31.508 61.5152 31.988C60.9632 32.46 60.2792 32.832 59.4632 33.104C58.6472 33.368 57.7152 33.5 56.6672 33.5H49.6831V16.016H56.1152ZM82.9213 24.752C82.9213 26.016 82.7013 27.192 82.2613 28.28C81.8293 29.368 81.2173 30.316 80.4253 31.124C79.6333 31.924 78.6773 32.552 77.5573 33.008C76.4453 33.464 75.2093 33.692 73.8493 33.692C72.4893 33.692 71.2493 33.464 70.1293 33.008C69.0093 32.552 68.0493 31.924 67.2493 31.124C66.4573 30.316 65.8413 29.368 65.4013 28.28C64.9693 27.192 64.7533 26.016 64.7533 24.752C64.7533 23.488 64.9693 22.312 65.4013 21.224C65.8413 20.136 66.4573 19.192 67.2493 18.392C68.0493 17.592 69.0093 16.964 70.1293 16.508C71.2493 16.052 72.4893 15.824 73.8493 15.824C75.2093 15.824 76.4453 16.056 77.5573 16.52C78.6773 16.976 79.6333 17.604 80.4253 18.404C81.2173 19.204 81.8293 20.148 82.2613 21.236C82.7013 22.324 82.9213 23.496 82.9213 24.752ZM78.7693 24.752C78.7693 23.888 78.6573 23.112 78.4333 22.424C78.2093 21.728 77.8853 21.14 77.4613 20.66C77.0453 20.18 76.5333 19.812 75.9253 19.556C75.3173 19.3 74.6253 19.172 73.8493 19.172C73.0653 19.172 72.3653 19.3 71.7493 19.556C71.1413 19.812 70.6253 20.18 70.2013 20.66C69.7853 21.14 69.4653 21.728 69.2413 22.424C69.0173 23.112 68.9053 23.888 68.9053 24.752C68.9053 25.624 69.0173 26.408 69.2413 27.104C69.4653 27.792 69.7853 28.376 70.2013 28.856C70.6253 29.336 71.1413 29.704 71.7493 29.96C72.3653 30.208 73.0653 30.332 73.8493 30.332C74.6253 30.332 75.3173 30.208 75.9253 29.96C76.5333 29.704 77.0453 29.336 77.4613 28.856C77.8853 28.376 78.2093 27.792 78.4333 27.104C78.6573 26.408 78.7693 25.624 78.7693 24.752ZM102.468 24.752C102.468 26.016 102.248 27.192 101.808 28.28C101.376 29.368 100.764 30.316 99.9722 31.124C99.1802 31.924 98.2242 32.552 97.1042 33.008C95.9922 33.464 94.7562 33.692 93.3962 33.692C92.0362 33.692 90.7962 33.464 89.6761 33.008C88.5561 32.552 87.5962 31.924 86.7962 31.124C86.0042 30.316 85.3882 29.368 84.9482 28.28C84.5161 27.192 84.3001 26.016 84.3001 24.752C84.3001 23.488 84.5161 22.312 84.9482 21.224C85.3882 20.136 86.0042 19.192 86.7962 18.392C87.5962 17.592 88.5561 16.964 89.6761 16.508C90.7962 16.052 92.0362 15.824 93.3962 15.824C94.7562 15.824 95.9922 16.056 97.1042 16.52C98.2242 16.976 99.1802 17.604 99.9722 18.404C100.764 19.204 101.376 20.148 101.808 21.236C102.248 22.324 102.468 23.496 102.468 24.752ZM98.3162 24.752C98.3162 23.888 98.2042 23.112 97.9802 22.424C97.7562 21.728 97.4322 21.14 97.0082 20.66C96.5922 20.18 96.0802 19.812 95.4722 19.556C94.8642 19.3 94.1722 19.172 93.3962 19.172C92.6122 19.172 91.9122 19.3 91.2962 19.556C90.6882 19.812 90.1722 20.18 89.7482 20.66C89.3322 21.14 89.0122 21.728 88.7882 22.424C88.5642 23.112 88.4522 23.888 88.4522 24.752C88.4522 25.624 88.5642 26.408 88.7882 27.104C89.0122 27.792 89.3322 28.376 89.7482 28.856C90.1722 29.336 90.6882 29.704 91.2962 29.96C91.9122 30.208 92.6122 30.332 93.3962 30.332C94.1722 30.332 94.8642 30.208 95.4722 29.96C96.0802 29.704 96.5922 29.336 97.0082 28.856C97.4322 28.376 97.7562 27.792 97.9802 27.104C98.2042 26.408 98.3162 25.624 98.3162 24.752ZM114.515 19.568C114.395 19.76 114.267 19.904 114.131 20C114.003 20.096 113.835 20.144 113.627 20.144C113.443 20.144 113.243 20.088 113.027 19.976C112.819 19.856 112.579 19.724 112.307 19.58C112.043 19.436 111.739 19.308 111.395 19.196C111.051 19.076 110.659 19.016 110.219 19.016C109.459 19.016 108.891 19.18 108.515 19.508C108.147 19.828 107.963 20.264 107.963 20.816C107.963 21.168 108.075 21.46 108.299 21.692C108.523 21.924 108.815 22.124 109.175 22.292C109.543 22.46 109.959 22.616 110.423 22.76C110.895 22.896 111.375 23.052 111.863 23.228C112.351 23.396 112.827 23.596 113.291 23.828C113.763 24.06 114.179 24.356 114.539 24.716C114.907 25.076 115.203 25.516 115.427 26.036C115.651 26.548 115.763 27.168 115.763 27.896C115.763 28.704 115.623 29.46 115.343 30.164C115.063 30.868 114.655 31.484 114.119 32.012C113.591 32.532 112.935 32.944 112.151 33.248C111.375 33.544 110.491 33.692 109.499 33.692C108.955 33.692 108.399 33.636 107.831 33.524C107.271 33.412 106.727 33.256 106.199 33.056C105.671 32.848 105.175 32.604 104.711 32.324C104.247 32.044 103.843 31.732 103.499 31.388L104.699 29.492C104.795 29.356 104.919 29.244 105.071 29.156C105.231 29.06 105.403 29.012 105.587 29.012C105.827 29.012 106.067 29.088 106.307 29.24C106.555 29.392 106.831 29.56 107.135 29.744C107.447 29.928 107.803 30.096 108.203 30.248C108.603 30.4 109.075 30.476 109.619 30.476C110.355 30.476 110.927 30.316 111.335 29.996C111.743 29.668 111.947 29.152 111.947 28.448C111.947 28.04 111.835 27.708 111.611 27.452C111.387 27.196 111.091 26.984 110.723 26.816C110.363 26.648 109.951 26.5 109.487 26.372C109.023 26.244 108.547 26.104 108.059 25.952C107.571 25.792 107.095 25.6 106.631 25.376C106.167 25.144 105.751 24.844 105.383 24.476C105.023 24.1 104.731 23.636 104.507 23.084C104.283 22.524 104.171 21.836 104.171 21.02C104.171 20.364 104.303 19.724 104.567 19.1C104.831 18.476 105.219 17.92 105.731 17.432C106.243 16.944 106.871 16.556 107.615 16.268C108.359 15.972 109.211 15.824 110.171 15.824C110.707 15.824 111.227 15.868 111.731 15.956C112.243 16.036 112.727 16.16 113.183 16.328C113.639 16.488 114.063 16.684 114.455 16.916C114.855 17.14 115.211 17.396 115.523 17.684L114.515 19.568ZM130.708 19.232H125.788V33.5H121.732V19.232H116.812V16.016H130.708V19.232Z" fill="#1C1C1C"/>
</svg>
